<svg style="stroke:black; stroke-width:0.5;" fill="white" id="bold" enable-background="new 0 0 24 24" height="512" viewBox="0 0 24 24" width="512" xmlns="http://www.w3.org/2000/svg"><path d="m17.35 11.56c-.66 1.48-.72 2.97-.18 4.44h-3.57c-.139-.42-.143-1.521.19-2.45.28-.78.7-1.58.95-2.44.25-.85-.01-1.7-.24-2.61-.06.87-.26 1.71-.62 2.48-.34.78-.85 1.46-1.28 2.27s-.65 1.79-.65 2.72v.03h-5.86c.33-2.36 1.24-4.57 2.73-6.57-2.423.205-3.417.561-4.25-.2-.35-.32-.55-.78-.55-1.26 0-1-.092-2.842 1.94-3.43l5.02-1.59v-2.2c0-.605.69-.977 1.2-.6l2.23 1.67c3.22 2.01 4.51 6.21 2.94 9.74z"/><path d="m20 20v-.5c0-.944-.748-2-1.75-2h-12.5c-1.002 0-1.75 1.056-1.75 2v.5c-1.319 0-2 .805-2 1.75v1.5c0 .414.336.75.75.75h18.5c.414 0 .75-.336.75-.75v-1.5c0-.945-.681-1.75-2-1.75z"/></svg>